<?xml version="1.0" standalone="no"?>
<!DOCTYPE svg PUBLIC "-//W3C//DTD SVG 20010904//EN"
 "http://www.w3.org/TR/2001/REC-SVG-20010904/DTD/svg10.dtd">
<svg version="1.0" xmlns="http://www.w3.org/2000/svg"
 width="701.000000pt" height="701.000000pt" viewBox="0 0 701.000000 701.000000"
 preserveAspectRatio="xMidYMid meet">

<g transform="translate(0.000000,701.000000) scale(0.100000,-0.100000)"
fill="#000000" stroke="none">
<path d="M3250 6055 c-465 -57 -940 -258 -1311 -557 -389 -312 -707 -774 -843
-1221 -143 -472 -152 -970 -25 -1418 152 -540 444 -988 864 -1324 483 -388
1134 -597 1728 -555 904 64 1685 557 2094 1320 215 401 326 864 310 1290 -13
338 -60 558 -187 877 -80 200 -153 332 -289 522 -423 591 -1108 993 -1823
1070 -127 14 -386 12 -518 -4z m441 -426 c305 -31 598 -127 874 -286 194 -113
443 -327 587 -508 148 -186 290 -442 362 -657 89 -263 129 -626 96 -875 -69
-513 -254 -904 -600 -1267 -188 -197 -509 -402 -775 -496 -119 -41 -298 -86
-426 -106 -143 -23 -428 -23 -573 0 -440 69 -842 263 -1143 550 -423 403 -663
961 -663 1536 0 205 13 315 56 490 66 268 190 535 342 735 78 102 186 227 258
297 219 213 511 393 789 486 286 96 548 129 816 101z"/>
<path d="M3485 5325 c-5 -2 -22 -6 -38 -9 -41 -9 -103 -71 -123 -121 -11 -31
-15 -64 -12 -108 5 -86 39 -139 111 -173 153 -71 316 29 317 194 0 64 -35 140
-80 172 -49 35 -138 58 -175 45z"/>
<path d="M2247 4959 c-15 -11 -31 -37 -37 -57 -8 -26 -10 -453 -8 -1407 3
-1317 4 -1371 22 -1397 28 -42 72 -50 248 -46 148 3 159 4 180 26 l23 23 5
1037 5 1036 145 -183 c80 -100 183 -231 230 -290 47 -60 117 -147 155 -196
248 -311 695 -873 830 -1045 237 -300 287 -361 318 -384 25 -18 45 -21 194
-24 193 -5 234 3 263 51 20 31 20 62 20 1414 0 1050 -3 1388 -12 1408 -22 48
-51 55 -237 55 -165 0 -171 -1 -198 -24 l-28 -24 -2 -1004 c-2 -551 -4 -1023
-5 -1048 l-3 -45 -80 99 c-44 54 -147 185 -230 290 -206 263 -483 615 -646
820 -74 94 -182 231 -240 305 -57 74 -150 193 -207 265 -57 72 -137 175 -179
229 -106 140 -100 137 -319 137 -168 0 -183 -2 -207 -21z"/>
<path d="M3468 2146 c-61 -16 -92 -38 -126 -88 -24 -37 -27 -51 -27 -124 0
-76 2 -86 30 -126 63 -88 179 -117 279 -69 123 60 155 233 63 337 -56 65 -137
91 -219 70z"/>
</g>
</svg>
